<svg xmlns="http://www.w3.org/2000/svg" xmlns:xlink="http://www.w3.org/1999/xlink" width="1500" zoomAndPan="magnify" viewBox="0 0 1125 225" height="300" preserveAspectRatio="xMidYMid meet" version="1.0"><defs><g/></defs><rect x="-112.5" width="1350" fill="#ffffff" y="-22.5" height="270" fill-opacity="1"/><rect x="-112.5" width="1350" fill="#ffffff" y="-22.5" height="270" fill-opacity="1"/><g fill="#c1994d" fill-opacity="1"><g transform="translate(15.102332, 171.65493)"><g><path d="M 9.921875 -92.53125 C 9.921875 -88.164062 11.539062 -83.097656 14.78125 -77.328125 C 19.289062 -69.296875 25.066406 -61.125 32.109375 -52.8125 L 52.609375 -29.359375 C 60.628906 -20.066406 64.640625 -12.601562 64.640625 -6.96875 C 64.640625 -3.59375 63.617188 -1.023438 61.578125 0.734375 C 59.535156 2.492188 55.984375 3.375 50.921875 3.375 C 44.296875 3.375 36.96875 2.175781 28.9375 -0.21875 C 24.570312 -1.625 20.132812 -3.664062 15.625 -6.34375 C 11.125 -9.019531 7.957031 -11.484375 6.125 -13.734375 C 5.28125 -14.722656 4.859375 -15.988281 4.859375 -17.53125 C 4.859375 -18.800781 5.347656 -19.894531 6.328125 -20.8125 C 7.316406 -21.726562 8.445312 -22.1875 9.71875 -22.1875 C 10.707031 -22.1875 11.691406 -21.90625 12.671875 -21.34375 C 13.234375 -21.0625 14.148438 -20.425781 15.421875 -19.4375 C 16.691406 -18.445312 18.3125 -17.039062 20.28125 -15.21875 C 29.007812 -8.03125 38.65625 -4.4375 49.21875 -4.4375 C 51.613281 -4.4375 53.335938 -4.859375 54.390625 -5.703125 C 55.453125 -6.546875 55.984375 -7.53125 55.984375 -8.65625 C 55.984375 -9.363281 55.628906 -10.28125 54.921875 -11.40625 C 54.078125 -12.957031 51.6875 -16.195312 47.75 -21.125 L 18.375 -57.671875 C 14.570312 -62.460938 11.96875 -66.617188 10.5625 -70.140625 C 8.726562 -74.367188 7.8125 -78.945312 7.8125 -83.875 C 7.8125 -87.394531 8.515625 -91.054688 9.921875 -94.859375 Z M 68.875 1.6875 C 70.707031 -0.144531 71.625 -3.171875 71.625 -7.390625 C 71.625 -11.472656 70.492188 -15.554688 68.234375 -19.640625 C 66.265625 -23.585938 61.476562 -29.578125 53.875 -37.609375 C 45.84375 -46.054688 39.222656 -53.519531 34.015625 -60 C 28.804688 -66.476562 24.863281 -71.972656 22.1875 -76.484375 C 18.101562 -83.804688 16.0625 -90.425781 16.0625 -96.34375 C 16.0625 -103.664062 19.6875 -109.367188 26.9375 -113.453125 C 34.1875 -117.535156 44.082031 -119.578125 56.625 -119.578125 C 65.488281 -119.578125 73.40625 -118.414062 80.375 -116.09375 C 87.351562 -113.769531 92.390625 -111.269531 95.484375 -108.59375 C 97.179688 -107.039062 98.03125 -105.5625 98.03125 -104.15625 C 98.03125 -102.75 97.535156 -101.550781 96.546875 -100.5625 C 95.703125 -99.71875 94.644531 -99.296875 93.375 -99.296875 C 92.113281 -99.296875 91.054688 -99.503906 90.203125 -99.921875 C 88.660156 -100.492188 85.492188 -102.394531 80.703125 -105.625 C 77.609375 -107.601562 74.367188 -109.15625 70.984375 -110.28125 C 67.609375 -111.40625 64.648438 -111.96875 62.109375 -111.96875 C 59.710938 -111.96875 57.738281 -111.296875 56.1875 -109.953125 C 54.644531 -108.617188 53.875 -107.109375 53.875 -105.421875 C 53.875 -103.585938 54.578125 -101.546875 55.984375 -99.296875 C 57.109375 -97.328125 59.046875 -94.753906 61.796875 -91.578125 C 64.546875 -88.410156 68.03125 -84.570312 72.25 -80.0625 C 82.394531 -69.5 88.734375 -62.53125 91.265625 -59.15625 C 95.492188 -53.664062 98.378906 -48.984375 99.921875 -45.109375 C 101.472656 -41.234375 102.25 -36.972656 102.25 -32.328125 C 102.25 -23.734375 99.851562 -16.972656 95.0625 -12.046875 C 88.875 -5.285156 80.144531 -0.707031 68.875 1.6875 Z M 68.875 1.6875 "/></g></g></g><g fill="#c1994d" fill-opacity="1"><g transform="translate(141.862949, 171.65493)"><g><path d="M 92.109375 0 L 92.109375 -119.359375 C 99.859375 -118.378906 106.441406 -116.726562 111.859375 -114.40625 C 117.285156 -112.082031 121.828125 -108.945312 125.484375 -105 C 128.023438 -102.1875 129.929688 -98.664062 131.203125 -94.4375 C 131.898438 -91.332031 132.25 -87.035156 132.25 -81.546875 L 132.25 -26.40625 C 132.25 -17.394531 133.304688 -8.59375 135.421875 0 Z M 76.484375 -80.921875 C 75.210938 -81.054688 73.976562 -81.160156 72.78125 -81.234375 C 71.582031 -81.304688 70.421875 -81.34375 69.296875 -81.34375 C 58.734375 -81.34375 50.28125 -80.210938 43.9375 -77.953125 C 39.570312 -76.546875 35.140625 -74.15625 30.640625 -70.78125 C 26.265625 -67.539062 22.8125 -63.628906 20.28125 -59.046875 C 17.75 -54.472656 16.484375 -49.015625 16.484375 -42.671875 C 16.484375 -36.753906 17.675781 -31.71875 20.0625 -27.5625 C 22.457031 -23.414062 25.628906 -19.582031 29.578125 -16.0625 C 33.523438 -12.675781 38.171875 -10.066406 43.515625 -8.234375 C 48.867188 -6.410156 54.925781 -5.5 61.6875 -5.5 C 66.195312 -5.5 71.128906 -6.128906 76.484375 -7.390625 Z M 85.140625 -0.421875 C 79.503906 0.566406 74.570312 1.304688 70.34375 1.796875 C 66.125 2.285156 62.535156 2.53125 59.578125 2.53125 C 52.109375 2.675781 45.132812 1.484375 38.65625 -1.046875 C 32.175781 -3.585938 26.613281 -7.003906 21.96875 -11.296875 C 17.320312 -15.597656 13.726562 -20.5625 11.1875 -26.1875 C 8.65625 -31.820312 7.53125 -37.738281 7.8125 -43.9375 C 7.8125 -53.375 10.488281 -61.613281 15.84375 -68.65625 C 21.195312 -75.695312 29.015625 -81.050781 39.296875 -84.71875 C 47.742188 -87.53125 56.125 -88.9375 64.4375 -88.9375 L 76.484375 -88.734375 C 76.484375 -97.046875 76.269531 -102.1875 75.84375 -104.15625 C 75.28125 -106.125 74.222656 -107.671875 72.671875 -108.796875 C 70.140625 -110.492188 66.476562 -111.34375 61.6875 -111.34375 C 56.757812 -111.34375 52.144531 -110.707031 47.84375 -109.4375 C 43.550781 -108.164062 39.71875 -106.546875 36.34375 -104.578125 C 35.488281 -104.148438 34.535156 -103.441406 33.484375 -102.453125 C 32.429688 -101.472656 31.335938 -100.488281 30.203125 -99.5 C 29.078125 -98.519531 27.988281 -97.570312 26.9375 -96.65625 C 25.882812 -95.738281 25.003906 -95.066406 24.296875 -94.640625 C 22.890625 -93.941406 21.765625 -93.59375 20.921875 -93.59375 C 19.367188 -93.59375 17.992188 -94.191406 16.796875 -95.390625 C 15.597656 -96.585938 15 -97.957031 15 -99.5 C 15 -102.882812 17.957031 -106.265625 23.875 -109.640625 C 36.832031 -116.679688 53.660156 -120.203125 74.359375 -120.203125 C 76.335938 -120.203125 78.238281 -120.164062 80.0625 -120.09375 C 81.894531 -120.03125 83.585938 -119.925781 85.140625 -119.78125 Z M 85.140625 -0.421875 "/></g></g></g><g fill="#c1994d" fill-opacity="1"><g transform="translate(307.70808, 171.65493)"><g><path d="M 86.828125 -115.34375 L 128.65625 -115.34375 C 128.375 -108.300781 128.128906 -101.644531 127.921875 -95.375 C 127.710938 -89.113281 127.609375 -83.164062 127.609375 -77.53125 L 127.609375 -18.796875 C 127.609375 -8.097656 126.898438 -0.425781 125.484375 4.21875 C 124.222656 9.007812 122.078125 13.128906 119.046875 16.578125 C 116.015625 20.035156 111.539062 23.242188 105.625 26.203125 C 100.132812 29.296875 93.867188 31.476562 86.828125 32.75 Z M 70.78125 -107.75 C 69.082031 -108.03125 67.492188 -108.238281 66.015625 -108.375 C 64.535156 -108.519531 63.09375 -108.59375 61.6875 -108.59375 C 47.46875 -108.59375 35.988281 -104.4375 27.25 -96.125 C 18.519531 -87.8125 14.15625 -77.390625 14.15625 -64.859375 C 14.15625 -52.460938 18.273438 -42.53125 26.515625 -35.0625 C 34.753906 -27.601562 47.179688 -23.875 63.796875 -23.875 L 70.78125 -23.875 Z M 79.640625 34.015625 C 77.253906 34.296875 75.070312 34.503906 73.09375 34.640625 C 71.125 34.785156 69.363281 34.859375 67.8125 34.859375 C 50.769531 34.859375 37.671875 31.757812 28.515625 25.5625 C 21.753906 20.914062 18.375 16.128906 18.375 11.203125 C 18.375 9.085938 19.078125 7.359375 20.484375 6.015625 C 21.898438 4.679688 23.664062 4.015625 25.78125 4.015625 C 27.46875 4.015625 29.015625 4.578125 30.421875 5.703125 C 31.828125 6.828125 33.375 9.007812 35.0625 12.25 C 36.757812 15.488281 38.59375 18.023438 40.5625 19.859375 C 41.96875 20.984375 43.410156 22.003906 44.890625 22.921875 C 46.367188 23.835938 48.023438 24.578125 49.859375 25.140625 C 53.234375 26.128906 58.234375 26.625 64.859375 26.625 C 65.984375 26.625 67.003906 26.625 67.921875 26.625 C 68.835938 26.625 69.789062 26.550781 70.78125 26.40625 L 70.78125 -15.84375 C 68.945312 -15.707031 67.359375 -15.640625 66.015625 -15.640625 C 64.679688 -15.640625 63.453125 -15.640625 62.328125 -15.640625 C 53.023438 -15.640625 44.816406 -16.941406 37.703125 -19.546875 C 30.597656 -22.148438 24.648438 -25.703125 19.859375 -30.203125 C 15.066406 -34.710938 11.472656 -39.925781 9.078125 -45.84375 C 6.691406 -51.757812 5.5 -58.097656 5.5 -64.859375 C 5.5 -69.503906 6.128906 -74.078125 7.390625 -78.578125 C 8.660156 -83.085938 10.457031 -87.316406 12.78125 -91.265625 C 15.101562 -95.210938 17.953125 -98.835938 21.328125 -102.140625 C 24.710938 -105.453125 28.519531 -108.164062 32.75 -110.28125 C 41.34375 -114.644531 50.988281 -116.828125 61.6875 -116.828125 C 64.082031 -116.828125 66.757812 -116.722656 69.71875 -116.515625 C 72.675781 -116.304688 75.984375 -115.914062 79.640625 -115.34375 Z M 79.640625 34.015625 "/></g></g></g><g fill="#c1994d" fill-opacity="1"><g transform="translate(465.736311, 171.65493)"><g><path d="M 92.109375 0 L 92.109375 -119.359375 C 99.859375 -118.378906 106.441406 -116.726562 111.859375 -114.40625 C 117.285156 -112.082031 121.828125 -108.945312 125.484375 -105 C 128.023438 -102.1875 129.929688 -98.664062 131.203125 -94.4375 C 131.898438 -91.332031 132.25 -87.035156 132.25 -81.546875 L 132.25 -26.40625 C 132.25 -17.394531 133.304688 -8.59375 135.421875 0 Z M 76.484375 -80.921875 C 75.210938 -81.054688 73.976562 -81.160156 72.78125 -81.234375 C 71.582031 -81.304688 70.421875 -81.34375 69.296875 -81.34375 C 58.734375 -81.34375 50.28125 -80.210938 43.9375 -77.953125 C 39.570312 -76.546875 35.140625 -74.15625 30.640625 -70.78125 C 26.265625 -67.539062 22.8125 -63.628906 20.28125 -59.046875 C 17.75 -54.472656 16.484375 -49.015625 16.484375 -42.671875 C 16.484375 -36.753906 17.675781 -31.71875 20.0625 -27.5625 C 22.457031 -23.414062 25.628906 -19.582031 29.578125 -16.0625 C 33.523438 -12.675781 38.171875 -10.066406 43.515625 -8.234375 C 48.867188 -6.410156 54.925781 -5.5 61.6875 -5.5 C 66.195312 -5.5 71.128906 -6.128906 76.484375 -7.390625 Z M 85.140625 -0.421875 C 79.503906 0.566406 74.570312 1.304688 70.34375 1.796875 C 66.125 2.285156 62.535156 2.53125 59.578125 2.53125 C 52.109375 2.675781 45.132812 1.484375 38.65625 -1.046875 C 32.175781 -3.585938 26.613281 -7.003906 21.96875 -11.296875 C 17.320312 -15.597656 13.726562 -20.5625 11.1875 -26.1875 C 8.65625 -31.820312 7.53125 -37.738281 7.8125 -43.9375 C 7.8125 -53.375 10.488281 -61.613281 15.84375 -68.65625 C 21.195312 -75.695312 29.015625 -81.050781 39.296875 -84.71875 C 47.742188 -87.53125 56.125 -88.9375 64.4375 -88.9375 L 76.484375 -88.734375 C 76.484375 -97.046875 76.269531 -102.1875 75.84375 -104.15625 C 75.28125 -106.125 74.222656 -107.671875 72.671875 -108.796875 C 70.140625 -110.492188 66.476562 -111.34375 61.6875 -111.34375 C 56.757812 -111.34375 52.144531 -110.707031 47.84375 -109.4375 C 43.550781 -108.164062 39.71875 -106.546875 36.34375 -104.578125 C 35.488281 -104.148438 34.535156 -103.441406 33.484375 -102.453125 C 32.429688 -101.472656 31.335938 -100.488281 30.203125 -99.5 C 29.078125 -98.519531 27.988281 -97.570312 26.9375 -96.65625 C 25.882812 -95.738281 25.003906 -95.066406 24.296875 -94.640625 C 22.890625 -93.941406 21.765625 -93.59375 20.921875 -93.59375 C 19.367188 -93.59375 17.992188 -94.191406 16.796875 -95.390625 C 15.597656 -96.585938 15 -97.957031 15 -99.5 C 15 -102.882812 17.957031 -106.265625 23.875 -109.640625 C 36.832031 -116.679688 53.660156 -120.203125 74.359375 -120.203125 C 76.335938 -120.203125 78.238281 -120.164062 80.0625 -120.09375 C 81.894531 -120.03125 83.585938 -119.925781 85.140625 -119.78125 Z M 85.140625 -0.421875 "/></g></g></g><g fill="#c1994d" fill-opacity="1"><g transform="translate(631.581422, 171.65493)"><g><path d="M 27.671875 0 L 27.671875 -115.34375 L 69.71875 -115.34375 C 69.007812 -109.4375 68.585938 -102.394531 68.453125 -94.21875 C 68.304688 -90.132812 68.195312 -86.929688 68.125 -84.609375 C 68.0625 -82.285156 68.03125 -80.769531 68.03125 -80.0625 L 68.03125 -34.21875 C 68.03125 -27.882812 68.132812 -21.898438 68.34375 -16.265625 C 68.550781 -10.628906 68.9375 -5.207031 69.5 0 Z M 20.5 0 L 9.921875 0 C 10.628906 -5.769531 11.054688 -12.390625 11.203125 -19.859375 C 11.617188 -27.460938 11.828125 -32.25 11.828125 -34.21875 L 11.828125 -80.0625 C 11.828125 -81.050781 11.753906 -83.164062 11.609375 -86.40625 C 11.472656 -89.644531 11.265625 -94.007812 10.984375 -99.5 C 10.847656 -103.582031 10.707031 -106.960938 10.5625 -109.640625 C 10.425781 -112.316406 10.285156 -114.21875 10.140625 -115.34375 L 20.5 -115.34375 Z M 20.5 -127.8125 C 17.820312 -129.082031 15.601562 -130.984375 13.84375 -133.515625 C 12.082031 -136.054688 11.203125 -138.59375 11.203125 -141.125 C 11.203125 -143.519531 12.046875 -145.84375 13.734375 -148.09375 C 15.421875 -150.351562 17.675781 -152.1875 20.5 -153.59375 Z M 27.671875 -155.484375 C 31.472656 -156.472656 35.554688 -156.96875 39.921875 -156.96875 C 45.421875 -156.96875 50.035156 -156.507812 53.765625 -155.59375 C 57.492188 -154.675781 60.519531 -153.441406 62.84375 -151.890625 C 65.175781 -150.347656 66.867188 -148.625 67.921875 -146.71875 C 68.972656 -144.820312 69.5 -142.957031 69.5 -141.125 C 69.5 -137.175781 67.597656 -133.867188 63.796875 -131.203125 C 58.023438 -127.390625 49.503906 -125.484375 38.234375 -125.484375 C 34.429688 -125.484375 30.910156 -125.769531 27.671875 -126.34375 Z M 27.671875 -155.484375 "/></g></g></g><g fill="#c1994d" fill-opacity="1"><g transform="translate(731.08852, 171.65493)"><g><path d="M 14.359375 -25.984375 C 8.304688 -35.847656 5.28125 -46.550781 5.28125 -58.09375 C 5.28125 -69.789062 8.304688 -80.425781 14.359375 -90 Z M 21.546875 -99.078125 C 26.753906 -105.140625 33.335938 -110.070312 41.296875 -113.875 C 49.253906 -117.675781 57.882812 -119.578125 67.1875 -119.578125 C 75.488281 -119.578125 83.867188 -118.164062 92.328125 -115.34375 C 97.109375 -113.65625 102.109375 -110.984375 107.328125 -107.328125 C 112.253906 -103.804688 115.914062 -100.632812 118.3125 -97.8125 C 119.15625 -96.550781 119.578125 -95.003906 119.578125 -93.171875 C 119.578125 -91.484375 119.046875 -90.070312 117.984375 -88.9375 C 116.929688 -87.8125 115.703125 -87.25 114.296875 -87.25 C 112.890625 -87.25 111.617188 -87.601562 110.484375 -88.3125 C 108.660156 -89.289062 106.335938 -91.539062 103.515625 -95.0625 C 102.109375 -96.894531 100.734375 -98.445312 99.390625 -99.71875 C 98.054688 -100.988281 96.753906 -102.113281 95.484375 -103.09375 C 91.546875 -105.769531 87.144531 -107.847656 82.28125 -109.328125 C 77.425781 -110.804688 72.039062 -111.546875 66.125 -111.546875 C 65.414062 -111.546875 64.707031 -111.546875 64 -111.546875 C 63.300781 -111.546875 62.601562 -111.476562 61.90625 -111.34375 L 61.90625 -4.859375 C 63.445312 -4.710938 64.601562 -4.640625 65.375 -4.640625 C 66.15625 -4.640625 66.617188 -4.640625 66.765625 -4.640625 C 70.847656 -4.640625 75.632812 -5.488281 81.125 -7.1875 C 86.757812 -8.875 91.476562 -10.984375 95.28125 -13.515625 C 99.082031 -16.054688 102.320312 -18.945312 105 -22.1875 C 106.550781 -24.007812 108.453125 -27.035156 110.703125 -31.265625 C 112.390625 -34.222656 113.832031 -36.160156 115.03125 -37.078125 C 116.226562 -37.992188 117.460938 -38.453125 118.734375 -38.453125 C 120.421875 -38.453125 121.863281 -37.851562 123.0625 -36.65625 C 124.257812 -35.457031 124.859375 -34.082031 124.859375 -32.53125 C 124.859375 -30.28125 123.304688 -26.972656 120.203125 -22.609375 C 117.109375 -18.242188 112.394531 -13.875 106.0625 -9.5 C 102.957031 -7.25 99.851562 -5.347656 96.75 -3.796875 C 93.65625 -2.253906 90.5625 -0.914062 87.46875 0.21875 C 81.125 2.320312 74.148438 3.375 66.546875 3.375 C 57.109375 3.375 48.515625 1.507812 40.765625 -2.21875 C 33.023438 -5.945312 26.617188 -10.769531 21.546875 -16.6875 Z M 21.546875 -99.078125 "/></g></g></g><g fill="#c1994d" fill-opacity="1"><g transform="translate(877.49705, 171.65493)"><g><path d="M 27.671875 0 L 27.671875 -150.84375 L 69.71875 -150.84375 C 69.007812 -144.925781 68.585938 -137.882812 68.453125 -129.71875 C 68.304688 -125.632812 68.195312 -122.429688 68.125 -120.109375 C 68.0625 -117.785156 68.03125 -116.269531 68.03125 -115.5625 L 68.03125 -34.21875 C 68.03125 -27.882812 68.132812 -21.898438 68.34375 -16.265625 C 68.550781 -10.628906 68.9375 -5.207031 69.5 0 Z M 20.5 0 L 9.921875 0 C 10.628906 -5.769531 11.054688 -12.390625 11.203125 -19.859375 C 11.617188 -27.460938 11.828125 -32.25 11.828125 -34.21875 L 11.828125 -115.5625 C 11.828125 -116.550781 11.753906 -118.628906 11.609375 -121.796875 C 11.472656 -124.960938 11.265625 -129.363281 10.984375 -135 C 10.847656 -139.082031 10.707031 -142.460938 10.5625 -145.140625 C 10.425781 -147.816406 10.285156 -149.71875 10.140625 -150.84375 L 20.5 -150.84375 Z M 20.5 0 "/></g></g></g><g fill="#c1994d" fill-opacity="1"><g transform="translate(977.004147, 171.65493)"><g><path d="M 14.359375 -25.984375 C 8.304688 -35.847656 5.28125 -46.550781 5.28125 -58.09375 C 5.28125 -69.789062 8.304688 -80.425781 14.359375 -90 Z M 61.90625 -63.59375 L 119.578125 -63.59375 C 118.453125 -70.769531 116.757812 -76.894531 114.5 -81.96875 C 112.8125 -85.488281 110.453125 -89.007812 107.421875 -92.53125 C 104.398438 -96.050781 100.878906 -99.1875 96.859375 -101.9375 C 92.847656 -104.6875 88.484375 -106.90625 83.765625 -108.59375 C 79.046875 -110.28125 74.082031 -111.125 68.875 -111.125 C 68.03125 -111.125 67.039062 -111.085938 65.90625 -111.015625 C 64.78125 -110.953125 63.445312 -110.847656 61.90625 -110.703125 Z M 21.546875 -99.5 C 27.460938 -105.84375 34.328125 -110.738281 42.140625 -114.1875 C 49.960938 -117.632812 58.3125 -119.359375 67.1875 -119.359375 C 74.789062 -119.359375 81.863281 -118.125 88.40625 -115.65625 C 94.957031 -113.195312 100.835938 -109.785156 106.046875 -105.421875 C 111.265625 -101.054688 115.664062 -95.984375 119.25 -90.203125 C 122.84375 -84.429688 125.414062 -78.238281 126.96875 -71.625 C 127.8125 -67.539062 128.234375 -62.1875 128.234375 -55.5625 L 61.90625 -55.5625 L 61.90625 -5.28125 C 62.75 -5.144531 63.484375 -5.078125 64.109375 -5.078125 C 64.742188 -5.078125 65.347656 -5.078125 65.921875 -5.078125 C 68.585938 -5.078125 71.644531 -5.390625 75.09375 -6.015625 C 78.550781 -6.648438 81.96875 -7.566406 85.34375 -8.765625 C 88.726562 -9.960938 91.898438 -11.441406 94.859375 -13.203125 C 97.816406 -14.960938 100.28125 -16.898438 102.25 -19.015625 C 104.082031 -20.847656 106.335938 -23.804688 109.015625 -27.890625 C 110.847656 -30.566406 112.1875 -32.328125 113.03125 -33.171875 C 114.15625 -33.867188 115.28125 -34.21875 116.40625 -34.21875 C 118.09375 -34.21875 119.640625 -33.617188 121.046875 -32.421875 C 122.460938 -31.234375 123.171875 -29.929688 123.171875 -28.515625 C 123.171875 -24.148438 118.171875 -18.238281 108.171875 -10.78125 C 95.628906 -1.476562 81.546875 3.171875 65.921875 3.171875 C 58.453125 3.171875 51.828125 2.046875 46.046875 -0.203125 C 40.273438 -2.460938 34.710938 -5.5625 29.359375 -9.5 C 27.109375 -11.195312 24.503906 -13.59375 21.546875 -16.6875 Z M 21.546875 -99.5 "/></g></g></g></svg>